<svg xmlns="http://www.w3.org/2000/svg" width="1500" height="926" viewBox="0 0 1500 926"><defs><marker id="arrow" viewBox="0 0 10 10" refX="9" refY="5" markerWidth="7" markerHeight="7" orient="auto-start-reverse"><path d="M 0 0 L 10 5 L 0 10 z" fill="#9AA0A6"/></marker><marker id="arrowrev" viewBox="0 0 10 10" refX="1" refY="5" markerWidth="7" markerHeight="7" orient="auto-start-reverse"><path d="M 10 0 L 0 5 L 10 10 z" fill="#9AA0A6"/></marker></defs><rect width="1500" height="926" fill="#FFFFFF"/><rect x="40" y="40" width="1420" height="174" rx="14" fill="#FCFCFC" stroke="#D9D9D9" stroke-width="1.5"/><text x="56" y="66" font-family="Arial, Helvetica, sans-serif" font-size="15" font-weight="700" fill="#1F9EB5" letter-spacing="0.5">NAVEGADOR (CLIENTE)</text><rect x="40" y="264" width="1420" height="174" rx="14" fill="#FCFCFC" stroke="#D9D9D9" stroke-width="1.5"/><text x="56" y="290" font-family="Arial, Helvetica, sans-serif" font-size="15" font-weight="700" fill="#E2601F" letter-spacing="0.5">SERVERLESS (Vercel)</text><rect x="40" y="488" width="1420" height="174" rx="14" fill="#FCFCFC" stroke="#D9D9D9" stroke-width="1.5"/><text x="56" y="514" font-family="Arial, Helvetica, sans-serif" font-size="15" font-weight="700" fill="#8A8A8A" letter-spacing="0.5">DATOS</text><rect x="40" y="712" width="1420" height="174" rx="14" fill="#FCFCFC" stroke="#D9D9D9" stroke-width="1.5"/><text x="56" y="738" font-family="Arial, Helvetica, sans-serif" font-size="15" font-weight="700" fill="#6B6B6B" letter-spacing="0.5">IA &amp; SERVICIOS EXTERNOS</text><rect x="110" y="104" width="360" height="86" rx="9" fill="#E6F3F6" stroke="#1F9EB5" stroke-width="1.8"/><text x="290.0" y="143.0" text-anchor="middle" font-family="Arial, Helvetica, sans-serif" font-size="16" font-weight="700" fill="#1A1A1A">React 19 + Next.js App Router</text><text x="290.0" y="163.0" text-anchor="middle" font-family="Arial, Helvetica, sans-serif" font-size="11.5" fill="#6B6B6B">RSC + componentes cliente</text><rect x="600" y="104" width="360" height="86" rx="9" fill="#E6F3F6" stroke="#1F9EB5" stroke-width="1.8"/><text x="780.0" y="143.0" text-anchor="middle" font-family="Arial, Helvetica, sans-serif" font-size="16" font-weight="700" fill="#1A1A1A">middleware.ts</text><text x="780.0" y="163.0" text-anchor="middle" font-family="Arial, Helvetica, sans-serif" font-size="11.5" fill="#6B6B6B">Seguridad en el borde</text><rect x="1060" y="104" width="350" height="86" rx="9" fill="#F1F1F1" stroke="#8A8A8A" stroke-width="1.8"/><text x="1235.0" y="143.0" text-anchor="middle" font-family="Arial, Helvetica, sans-serif" font-size="16" font-weight="700" fill="#1A1A1A">localStorage (navegador)</text><text x="1235.0" y="163.0" text-anchor="middle" font-family="Arial, Helvetica, sans-serif" font-size="11.5" fill="#6B6B6B">Aprendizajes, repaso, ajustes</text><rect x="110" y="328" width="360" height="86" rx="9" fill="#FBEAE0" stroke="#E2601F" stroke-width="1.8"/><text x="290.0" y="367.0" text-anchor="middle" font-family="Arial, Helvetica, sans-serif" font-size="16" font-weight="700" fill="#1A1A1A">Route Handlers /api/**</text><text x="290.0" y="387.0" text-anchor="middle" font-family="Arial, Helvetica, sans-serif" font-size="11.5" fill="#6B6B6B">Funciones serverless</text><rect x="600" y="328" width="360" height="86" rx="9" fill="#FBEAE0" stroke="#E2601F" stroke-width="1.8"/><text x="780.0" y="367.0" text-anchor="middle" font-family="Arial, Helvetica, sans-serif" font-size="16" font-weight="700" fill="#1A1A1A">Crons Vercel</text><text x="780.0" y="387.0" text-anchor="middle" font-family="Arial, Helvetica, sans-serif" font-size="11.5" fill="#6B6B6B">daily-summary / check-reminders</text><rect x="110" y="552" width="360" height="86" rx="9" fill="#F1F1F1" stroke="#8A8A8A" stroke-width="1.8"/><text x="290.0" y="591.0" text-anchor="middle" font-family="Arial, Helvetica, sans-serif" font-size="16" font-weight="700" fill="#1A1A1A">Supabase Postgres</text><text x="290.0" y="611.0" text-anchor="middle" font-family="Arial, Helvetica, sans-serif" font-size="11.5" fill="#6B6B6B">Habilidades, hábitos, chats...</text><rect x="110" y="776" width="360" height="86" rx="9" fill="#E2601F" stroke="#E2601F" stroke-width="1.8"/><text x="290.0" y="815.0" text-anchor="middle" font-family="Arial, Helvetica, sans-serif" font-size="16" font-weight="700" fill="#FFFFFF">OpenAI gpt-4o-mini</text><text x="290.0" y="835.0" text-anchor="middle" font-family="Arial, Helvetica, sans-serif" font-size="11.5" fill="#FFE9DC">Tutor, AIE, tests (modo stub)</text><rect x="600" y="776" width="360" height="86" rx="9" fill="#FFFFFF" stroke="#6B6B6B" stroke-width="1.8" stroke-dasharray="5 4"/><text x="780.0" y="815.0" text-anchor="middle" font-family="Arial, Helvetica, sans-serif" font-size="16" font-weight="700" fill="#333333">Telegram Bot API</text><text x="780.0" y="835.0" text-anchor="middle" font-family="Arial, Helvetica, sans-serif" font-size="11.5" fill="#6B6B6B">Notificaciones y bot hábitos</text><rect x="1060" y="776" width="350" height="86" rx="9" fill="#FFFFFF" stroke="#6B6B6B" stroke-width="1.8" stroke-dasharray="5 4"/><text x="1235.0" y="815.0" text-anchor="middle" font-family="Arial, Helvetica, sans-serif" font-size="16" font-weight="700" fill="#333333">Resend / Upstash (opcional)</text><text x="1235.0" y="835.0" text-anchor="middle" font-family="Arial, Helvetica, sans-serif" font-size="11.5" fill="#6B6B6B">Email y rate limiting</text><line x1="470" y1="147.0" x2="600" y2="147.0" stroke="#9AA0A6" stroke-width="1.8" marker-end="url(#arrow)"/><rect x="483.5" y="136.0" width="103.0" height="16" rx="3" fill="#FFFFFF" opacity="0.92"/><text x="535.0" y="148.0" text-anchor="middle" font-family="Arial, Helvetica, sans-serif" font-size="10.5" fill="#6B6B6B">peticiones HTTP</text><polyline points="290.0,104 290.0,86 1235.0,86 1235.0,104" fill="none" stroke="#9AA0A6" stroke-width="1.8" marker-end="url(#arrow)"/><rect x="654.2" y="72.0" width="216.6" height="16" rx="3" fill="#FFFFFF" opacity="0.95"/><text x="762.5" y="84.0" text-anchor="middle" font-family="Arial, Helvetica, sans-serif" font-size="10.5" fill="#6B6B6B">lee / escribe (persistencia dual)</text><line x1="780.0" y1="190" x2="350.0" y2="328" stroke="#9AA0A6" stroke-width="1.8" marker-end="url(#arrow)"/><rect x="522.8" y="248.0" width="84.4" height="16" rx="3" fill="#FFFFFF" opacity="0.92"/><text x="565.0" y="260.0" text-anchor="middle" font-family="Arial, Helvetica, sans-serif" font-size="10.5" fill="#6B6B6B">HTTPS / JSON</text><line x1="290.0" y1="414" x2="290.0" y2="552" stroke="#9AA0A6" stroke-width="1.8" marker-end="url(#arrow)"/><rect x="275.7" y="472.0" width="28.6" height="16" rx="3" fill="#FFFFFF" opacity="0.92"/><text x="290.0" y="484.0" text-anchor="middle" font-family="Arial, Helvetica, sans-serif" font-size="10.5" fill="#6B6B6B">SQL</text><polyline points="150,414 150,538 92,538 92,652 290.0,652 290.0,776" fill="none" stroke="#9AA0A6" stroke-width="1.8" marker-end="url(#arrow)"/><rect x="64.3" y="581.0" width="55.4" height="16" rx="3" fill="#FFFFFF" opacity="0.95"/><text x="92.0" y="593.0" text-anchor="middle" font-family="Arial, Helvetica, sans-serif" font-size="10.5" fill="#6B6B6B">prompts</text><line x1="780.0" y1="414" x2="780.0" y2="776" stroke="#9AA0A6" stroke-width="1.8" marker-end="url(#arrow)"/><rect x="740.9" y="584.0" width="78.2" height="16" rx="3" fill="#FFFFFF" opacity="0.92"/><text x="780.0" y="596.0" text-anchor="middle" font-family="Arial, Helvetica, sans-serif" font-size="10.5" fill="#6B6B6B">sendMessage</text><polyline points="960,819.0 1020,819.0 1020,371.0 960,371.0" fill="none" stroke="#9AA0A6" stroke-width="1.8" marker-end="url(#arrow)"/><rect x="992.3" y="581.0" width="55.4" height="16" rx="3" fill="#FFFFFF" opacity="0.95"/><text x="1020.0" y="593.0" text-anchor="middle" font-family="Arial, Helvetica, sans-serif" font-size="10.5" fill="#6B6B6B">webhook</text><polyline points="700.0,414 700.0,595.0 470,595.0" fill="none" stroke="#9AA0A6" stroke-width="1.8" marker-end="url(#arrow)"/><rect x="669.2" y="507.5" width="61.6" height="16" rx="3" fill="#FFFFFF" opacity="0.95"/><text x="700.0" y="519.5" text-anchor="middle" font-family="Arial, Helvetica, sans-serif" font-size="10.5" fill="#6B6B6B">consulta</text></svg>