<svg xmlns="http://www.w3.org/2000/svg" width="1500" height="360" viewBox="0 0 1500 360"><defs><marker id="arrow" viewBox="0 0 10 10" refX="9" refY="5" markerWidth="7" markerHeight="7" orient="auto-start-reverse"><path d="M 0 0 L 10 5 L 0 10 z" fill="#9AA0A6"/></marker><marker id="arrowrev" viewBox="0 0 10 10" refX="1" refY="5" markerWidth="7" markerHeight="7" orient="auto-start-reverse"><path d="M 10 0 L 0 5 L 10 10 z" fill="#9AA0A6"/></marker></defs><rect width="1500" height="360" fill="#FFFFFF"/><rect x="60" y="90" width="300" height="96" rx="9" fill="#E6F3F6" stroke="#1F9EB5" stroke-width="1.8"/><text x="210.0" y="134.0" text-anchor="middle" font-family="Arial, Helvetica, sans-serif" font-size="16" font-weight="700" fill="#1A1A1A">Push a rama conectada</text><text x="210.0" y="154.0" text-anchor="middle" font-family="Arial, Helvetica, sans-serif" font-size="11.5" fill="#6B6B6B">Git (repositorio)</text><rect x="430" y="90" width="300" height="96" rx="9" fill="#FBEAE0" stroke="#E2601F" stroke-width="1.8"/><text x="580.0" y="134.0" text-anchor="middle" font-family="Arial, Helvetica, sans-serif" font-size="16" font-weight="700" fill="#1A1A1A">Vercel</text><text x="580.0" y="154.0" text-anchor="middle" font-family="Arial, Helvetica, sans-serif" font-size="11.5" fill="#6B6B6B">Build de Next.js (next build)</text><rect x="800" y="40" width="300" height="84" rx="9" fill="#FFFFFF" stroke="#BFBFBF" stroke-width="1.8"/><text x="950.0" y="78.0" text-anchor="middle" font-family="Arial, Helvetica, sans-serif" font-size="16" font-weight="700" fill="#1A1A1A">Preview (por rama)</text><text x="950.0" y="98.0" text-anchor="middle" font-family="Arial, Helvetica, sans-serif" font-size="11.5" fill="#6B6B6B">Despliegue de revision</text><rect x="800" y="176" width="300" height="84" rx="9" fill="#E2601F" stroke="#E2601F" stroke-width="1.8"/><text x="950.0" y="214.0" text-anchor="middle" font-family="Arial, Helvetica, sans-serif" font-size="16" font-weight="700" fill="#FFFFFF">Produccion</text><text x="950.0" y="234.0" text-anchor="middle" font-family="Arial, Helvetica, sans-serif" font-size="11.5" fill="#FFE9DC">Promocion serverless</text><rect x="1170" y="90" width="300" height="96" rx="9" fill="#FFFFFF" stroke="#6B6B6B" stroke-width="1.8" stroke-dasharray="5 4"/><text x="1320.0" y="134.0" text-anchor="middle" font-family="Arial, Helvetica, sans-serif" font-size="16" font-weight="700" fill="#333333">Crons (vercel.json)</text><text x="1320.0" y="154.0" text-anchor="middle" font-family="Arial, Helvetica, sans-serif" font-size="11.5" fill="#6B6B6B">daily-summary 07:00 / check-reminders 1h</text><line x1="360" y1="138.0" x2="430" y2="138.0" stroke="#9AA0A6" stroke-width="1.8" marker-end="url(#arrow)"/><rect x="355.9" y="127.0" width="78.2" height="16" rx="3" fill="#FFFFFF" opacity="0.92"/><text x="395.0" y="139.0" text-anchor="middle" font-family="Arial, Helvetica, sans-serif" font-size="10.5" fill="#6B6B6B">commit / PR</text><line x1="730" y1="130.0" x2="800" y2="82" stroke="#9AA0A6" stroke-width="1.8" marker-end="url(#arrow)"/><rect x="738.3" y="95.0" width="53.4" height="16" rx="3" fill="#FFFFFF" opacity="0.92"/><text x="765.0" y="107.0" text-anchor="middle" font-family="Arial, Helvetica, sans-serif" font-size="10.5" fill="#6B6B6B">preview</text><line x1="730" y1="146.0" x2="800" y2="218" stroke="#9AA0A6" stroke-width="1.8" marker-end="url(#arrow)"/><rect x="707.3" y="171.0" width="115.4" height="16" rx="3" fill="#FFFFFF" opacity="0.92"/><text x="765.0" y="183.0" text-anchor="middle" font-family="Arial, Helvetica, sans-serif" font-size="10.5" fill="#6B6B6B">produccion (main)</text><line x1="1100" y1="218" x2="1170" y2="138.0" stroke="#9AA0A6" stroke-width="1.8" marker-end="url(#arrow)"/><rect x="1111.4" y="167.0" width="47.2" height="16" rx="3" fill="#FFFFFF" opacity="0.92"/><text x="1135.0" y="179.0" text-anchor="middle" font-family="Arial, Helvetica, sans-serif" font-size="10.5" fill="#6B6B6B">activa</text><text x="60" y="336" text-anchor="start" font-family="Arial, Helvetica, sans-serif" font-size="12" fill="#6B6B6B">Despliegue continuo nativo de Vercel: cada push construye y publica; rollback a un despliegue anterior con un clic.</text></svg>