<svg xmlns="http://www.w3.org/2000/svg" width="1500" height="818" viewBox="0 0 1500 818"><defs><marker id="arrow" viewBox="0 0 10 10" refX="9" refY="5" markerWidth="7" markerHeight="7" orient="auto-start-reverse"><path d="M 0 0 L 10 5 L 0 10 z" fill="#9AA0A6"/></marker><marker id="arrowrev" viewBox="0 0 10 10" refX="1" refY="5" markerWidth="7" markerHeight="7" orient="auto-start-reverse"><path d="M 10 0 L 0 5 L 10 10 z" fill="#9AA0A6"/></marker></defs><rect width="1500" height="818" fill="#FFFFFF"/><rect x="40" y="40" width="1010" height="768" rx="14" fill="#FFFCFA" stroke="#F0D9CC" stroke-width="1.5"/><rect x="1160" y="40" width="300" height="768" rx="14" fill="#FAFAFA" stroke="#E2E2E2" stroke-width="1.5"/><text x="56" y="68" text-anchor="start" font-family="Arial, Helvetica, sans-serif" font-size="15" fill="#E2601F" font-weight="700">SUPABASE POSTGRES</text><rect x="70" y="96" width="300" height="178" rx="7" fill="#FFFFFF" stroke="#E2601F" stroke-width="1.8"/><rect x="70" y="96" width="300" height="30" rx="7" fill="#E2601F"/><rect x="70" y="118" width="300" height="8" fill="#E2601F"/><text x="220.0" y="116" text-anchor="middle" font-family="Arial, Helvetica, sans-serif" font-size="14" font-weight="700" fill="#FFFFFF">habilidades</text><text x="82" y="141" font-family="Arial, Helvetica, sans-serif" font-size="11.5" fill="#333333">id (uuid)</text><text x="82" y="161" font-family="Arial, Helvetica, sans-serif" font-size="11.5" fill="#333333">nombre</text><text x="82" y="181" font-family="Arial, Helvetica, sans-serif" font-size="11.5" fill="#333333">categoria(s)</text><text x="82" y="201" font-family="Arial, Helvetica, sans-serif" font-size="11.5" fill="#333333">tiempo_total_segundos</text><text x="82" y="221" font-family="Arial, Helvetica, sans-serif" font-size="11.5" fill="#333333">nivel</text><text x="82" y="241" font-family="Arial, Helvetica, sans-serif" font-size="11.5" fill="#333333">objetivo_semanal_minutos</text><text x="82" y="261" font-family="Arial, Helvetica, sans-serif" font-size="11.5" fill="#333333">deleted_at</text><rect x="70" y="324" width="300" height="138" rx="7" fill="#FFFFFF" stroke="#1F9EB5" stroke-width="1.8"/><rect x="70" y="324" width="300" height="30" rx="7" fill="#1F9EB5"/><rect x="70" y="346" width="300" height="8" fill="#1F9EB5"/><text x="220.0" y="344" text-anchor="middle" font-family="Arial, Helvetica, sans-serif" font-size="14" font-weight="700" fill="#FFFFFF">sesiones_practica</text><text x="82" y="369" font-family="Arial, Helvetica, sans-serif" font-size="11.5" fill="#333333">id (uuid)</text><text x="82" y="389" font-family="Arial, Helvetica, sans-serif" font-size="11.5" fill="#333333">habilidad_id (fk)</text><text x="82" y="409" font-family="Arial, Helvetica, sans-serif" font-size="11.5" fill="#333333">duracion_segundos</text><text x="82" y="429" font-family="Arial, Helvetica, sans-serif" font-size="11.5" fill="#333333">resumen</text><text x="82" y="449" font-family="Arial, Helvetica, sans-serif" font-size="11.5" fill="#333333">fecha</text><rect x="70" y="512" width="300" height="138" rx="7" fill="#FFFFFF" stroke="#1F9EB5" stroke-width="1.8"/><rect x="70" y="512" width="300" height="30" rx="7" fill="#1F9EB5"/><rect x="70" y="534" width="300" height="8" fill="#1F9EB5"/><text x="220.0" y="532" text-anchor="middle" font-family="Arial, Helvetica, sans-serif" font-size="14" font-weight="700" fill="#FFFFFF">recordatorios</text><text x="82" y="557" font-family="Arial, Helvetica, sans-serif" font-size="11.5" fill="#333333">id (uuid)</text><text x="82" y="577" font-family="Arial, Helvetica, sans-serif" font-size="11.5" fill="#333333">habilidad_id (fk)</text><text x="82" y="597" font-family="Arial, Helvetica, sans-serif" font-size="11.5" fill="#333333">dia_semana (0-6)</text><text x="82" y="617" font-family="Arial, Helvetica, sans-serif" font-size="11.5" fill="#333333">hora (time)</text><text x="82" y="637" font-family="Arial, Helvetica, sans-serif" font-size="11.5" fill="#333333">email_enabled</text><rect x="430" y="96" width="300" height="158" rx="7" fill="#FFFFFF" stroke="#E2601F" stroke-width="1.8"/><rect x="430" y="96" width="300" height="30" rx="7" fill="#E2601F"/><rect x="430" y="118" width="300" height="8" fill="#E2601F"/><text x="580.0" y="116" text-anchor="middle" font-family="Arial, Helvetica, sans-serif" font-size="14" font-weight="700" fill="#FFFFFF">habits</text><text x="442" y="141" font-family="Arial, Helvetica, sans-serif" font-size="11.5" fill="#333333">id (uuid)</text><text x="442" y="161" font-family="Arial, Helvetica, sans-serif" font-size="11.5" fill="#333333">text</text><text x="442" y="181" font-family="Arial, Helvetica, sans-serif" font-size="11.5" fill="#333333">category</text><text x="442" y="201" font-family="Arial, Helvetica, sans-serif" font-size="11.5" fill="#333333">streak</text><text x="442" y="221" font-family="Arial, Helvetica, sans-serif" font-size="11.5" fill="#333333">notification_times[]</text><text x="442" y="241" font-family="Arial, Helvetica, sans-serif" font-size="11.5" fill="#333333">telegram_chat_id</text><rect x="430" y="304" width="300" height="118" rx="7" fill="#FFFFFF" stroke="#1F9EB5" stroke-width="1.8"/><rect x="430" y="304" width="300" height="30" rx="7" fill="#1F9EB5"/><rect x="430" y="326" width="300" height="8" fill="#1F9EB5"/><text x="580.0" y="324" text-anchor="middle" font-family="Arial, Helvetica, sans-serif" font-size="14" font-weight="700" fill="#FFFFFF">habit_logs</text><text x="442" y="349" font-family="Arial, Helvetica, sans-serif" font-size="11.5" fill="#333333">id (uuid)</text><text x="442" y="369" font-family="Arial, Helvetica, sans-serif" font-size="11.5" fill="#333333">habit_id (fk)</text><text x="442" y="389" font-family="Arial, Helvetica, sans-serif" font-size="11.5" fill="#333333">completed_at (date)</text><text x="442" y="409" font-family="Arial, Helvetica, sans-serif" font-size="11.5" fill="#333333">único por (habit_id, fecha)</text><rect x="430" y="472" width="300" height="118" rx="7" fill="#FFFFFF" stroke="#E2601F" stroke-width="1.8"/><rect x="430" y="472" width="300" height="30" rx="7" fill="#E2601F"/><rect x="430" y="494" width="300" height="8" fill="#E2601F"/><text x="580.0" y="492" text-anchor="middle" font-family="Arial, Helvetica, sans-serif" font-size="14" font-weight="700" fill="#FFFFFF">focus_timer_data</text><text x="442" y="517" font-family="Arial, Helvetica, sans-serif" font-size="11.5" fill="#333333">user_id (pk)</text><text x="442" y="537" font-family="Arial, Helvetica, sans-serif" font-size="11.5" fill="#333333">total_minutes_focused</text><text x="442" y="557" font-family="Arial, Helvetica, sans-serif" font-size="11.5" fill="#333333">unlocked_skins[]</text><text x="442" y="577" font-family="Arial, Helvetica, sans-serif" font-size="11.5" fill="#333333">sessions_completed</text><rect x="790" y="96" width="300" height="138" rx="7" fill="#FFFFFF" stroke="#E2601F" stroke-width="1.8"/><rect x="790" y="96" width="300" height="30" rx="7" fill="#E2601F"/><rect x="790" y="118" width="300" height="8" fill="#E2601F"/><text x="940.0" y="116" text-anchor="middle" font-family="Arial, Helvetica, sans-serif" font-size="14" font-weight="700" fill="#FFFFFF">chats</text><text x="802" y="141" font-family="Arial, Helvetica, sans-serif" font-size="11.5" fill="#333333">id</text><text x="802" y="161" font-family="Arial, Helvetica, sans-serif" font-size="11.5" fill="#333333">titulo</text><text x="802" y="181" font-family="Arial, Helvetica, sans-serif" font-size="11.5" fill="#333333">tema</text><text x="802" y="201" font-family="Arial, Helvetica, sans-serif" font-size="11.5" fill="#333333">estado (abierto/cerrado)</text><text x="802" y="221" font-family="Arial, Helvetica, sans-serif" font-size="11.5" fill="#333333">conversacion_json</text><rect x="790" y="284" width="300" height="138" rx="7" fill="#FFFFFF" stroke="#1F9EB5" stroke-width="1.8"/><rect x="790" y="284" width="300" height="30" rx="7" fill="#1F9EB5"/><rect x="790" y="306" width="300" height="8" fill="#1F9EB5"/><text x="940.0" y="304" text-anchor="middle" font-family="Arial, Helvetica, sans-serif" font-size="14" font-weight="700" fill="#FFFFFF">chat_mensajes</text><text x="802" y="329" font-family="Arial, Helvetica, sans-serif" font-size="11.5" fill="#333333">id</text><text x="802" y="349" font-family="Arial, Helvetica, sans-serif" font-size="11.5" fill="#333333">chat_id (fk)</text><text x="802" y="369" font-family="Arial, Helvetica, sans-serif" font-size="11.5" fill="#333333">rol (usuario/ia)</text><text x="802" y="389" font-family="Arial, Helvetica, sans-serif" font-size="11.5" fill="#333333">texto</text><text x="802" y="409" font-family="Arial, Helvetica, sans-serif" font-size="11.5" fill="#333333">created_at</text><rect x="790" y="472" width="300" height="118" rx="7" fill="#FFFFFF" stroke="#E2601F" stroke-width="1.8"/><rect x="790" y="472" width="300" height="30" rx="7" fill="#E2601F"/><rect x="790" y="494" width="300" height="8" fill="#E2601F"/><text x="940.0" y="492" text-anchor="middle" font-family="Arial, Helvetica, sans-serif" font-size="14" font-weight="700" fill="#FFFFFF">exam_history</text><text x="802" y="517" font-family="Arial, Helvetica, sans-serif" font-size="11.5" fill="#333333">id</text><text x="802" y="537" font-family="Arial, Helvetica, sans-serif" font-size="11.5" fill="#333333">score</text><text x="802" y="557" font-family="Arial, Helvetica, sans-serif" font-size="11.5" fill="#333333">total_questions</text><text x="802" y="577" font-family="Arial, Helvetica, sans-serif" font-size="11.5" fill="#333333">questions_data</text><rect x="790" y="640" width="300" height="138" rx="7" fill="#FFFFFF" stroke="#8A8A8A" stroke-width="1.8"/><rect x="790" y="640" width="300" height="30" rx="7" fill="#8A8A8A"/><rect x="790" y="662" width="300" height="8" fill="#8A8A8A"/><text x="940.0" y="660" text-anchor="middle" font-family="Arial, Helvetica, sans-serif" font-size="14" font-weight="700" fill="#FFFFFF">aprendizajes</text><text x="802" y="685" font-family="Arial, Helvetica, sans-serif" font-size="11.5" fill="#333333">id</text><text x="802" y="705" font-family="Arial, Helvetica, sans-serif" font-size="11.5" fill="#333333">created_at</text><text x="802" y="725" font-family="Arial, Helvetica, sans-serif" font-size="11.5" fill="#333333">deleted_at</text><text x="802" y="745" font-family="Arial, Helvetica, sans-serif" font-size="11.5" fill="#333333">(API presente, sin escritura</text><text x="802" y="765" font-family="Arial, Helvetica, sans-serif" font-size="11.5" fill="#333333"> desde el front)</text><polyline points="220.0,274 220.0,324" fill="none" stroke="#9AA0A6" stroke-width="1.6" marker-end="url(#arrow)"/><rect x="226.0" y="288.0" width="28" height="15" rx="3" fill="#FFFFFF" opacity="0.95"/><text x="240.0" y="299.0" text-anchor="middle" font-family="Arial, Helvetica, sans-serif" font-size="10" fill="#6B6B6B">1:N</text><polyline points="70,256 52,256 52,581.0 70,581.0" fill="none" stroke="#9AA0A6" stroke-width="1.6" marker-end="url(#arrow)"/><rect x="40" y="382.0" width="28" height="15" rx="3" fill="#FFFFFF" opacity="0.95"/><text x="54" y="393.0" text-anchor="middle" font-family="Arial, Helvetica, sans-serif" font-size="10" fill="#6B6B6B">1:N</text><polyline points="580.0,254 580.0,304" fill="none" stroke="#9AA0A6" stroke-width="1.6" marker-end="url(#arrow)"/><rect x="586.0" y="268.0" width="28" height="15" rx="3" fill="#FFFFFF" opacity="0.95"/><text x="600.0" y="279.0" text-anchor="middle" font-family="Arial, Helvetica, sans-serif" font-size="10" fill="#6B6B6B">1:N</text><polyline points="940.0,234 940.0,284" fill="none" stroke="#9AA0A6" stroke-width="1.6" marker-end="url(#arrow)"/><rect x="946.0" y="248.0" width="28" height="15" rx="3" fill="#FFFFFF" opacity="0.95"/><text x="960.0" y="259.0" text-anchor="middle" font-family="Arial, Helvetica, sans-serif" font-size="10" fill="#6B6B6B">1:N</text><text x="1176" y="68" text-anchor="start" font-family="Arial, Helvetica, sans-serif" font-size="15" fill="#8A8A8A" font-weight="700">localStorage (NAVEGADOR)</text><rect x="1160" y="90" width="300" height="416" rx="9" fill="#FFFFFF" stroke="#6B6B6B" stroke-width="1.8" stroke-dasharray="5 4"/><text x="1310.0" y="303.0" text-anchor="middle" font-family="Arial, Helvetica, sans-serif" font-size="16" font-weight="700" fill="#333333"></text><text x="1184" y="124" text-anchor="start" font-family="Arial, Helvetica, sans-serif" font-size="13" fill="#1A1A1A" font-weight="700">sector_data_&lt;sectorId&gt;</text><text x="1184" y="144" text-anchor="start" font-family="Arial, Helvetica, sans-serif" font-size="11" fill="#6B6B6B">Aprendizajes por sector</text><line x1="1178" y1="156" x2="1442" y2="156" stroke="#E6E6E6" stroke-width="1"/><text x="1184" y="180" text-anchor="start" font-family="Arial, Helvetica, sans-serif" font-size="13" fill="#1A1A1A" font-weight="700">decayed_items</text><text x="1184" y="200" text-anchor="start" font-family="Arial, Helvetica, sans-serif" font-size="11" fill="#6B6B6B">Repetición espaciada</text><line x1="1178" y1="212" x2="1442" y2="212" stroke="#E6E6E6" stroke-width="1"/><text x="1184" y="236" text-anchor="start" font-family="Arial, Helvetica, sans-serif" font-size="13" fill="#1A1A1A" font-weight="700">app_settings</text><text x="1184" y="256" text-anchor="start" font-family="Arial, Helvetica, sans-serif" font-size="11" fill="#6B6B6B">Preferencias de usuario</text><line x1="1178" y1="268" x2="1442" y2="268" stroke="#E6E6E6" stroke-width="1"/><text x="1184" y="292" text-anchor="start" font-family="Arial, Helvetica, sans-serif" font-size="13" fill="#1A1A1A" font-weight="700">focus_timer_*</text><text x="1184" y="312" text-anchor="start" font-family="Arial, Helvetica, sans-serif" font-size="11" fill="#6B6B6B">Stats / skins / sonidos</text><line x1="1178" y1="324" x2="1442" y2="324" stroke="#E6E6E6" stroke-width="1"/><text x="1184" y="348" text-anchor="start" font-family="Arial, Helvetica, sans-serif" font-size="13" fill="#1A1A1A" font-weight="700">math_game_*</text><text x="1184" y="368" text-anchor="start" font-family="Arial, Helvetica, sans-serif" font-size="11" fill="#6B6B6B">Perfiles e historial</text><line x1="1178" y1="380" x2="1442" y2="380" stroke="#E6E6E6" stroke-width="1"/><text x="1184" y="404" text-anchor="start" font-family="Arial, Helvetica, sans-serif" font-size="13" fill="#1A1A1A" font-weight="700">learning_paths</text><text x="1184" y="424" text-anchor="start" font-family="Arial, Helvetica, sans-serif" font-size="11" fill="#6B6B6B">Rutas de aprendizaje</text><line x1="1178" y1="436" x2="1442" y2="436" stroke="#E6E6E6" stroke-width="1"/><text x="1184" y="460" text-anchor="start" font-family="Arial, Helvetica, sans-serif" font-size="13" fill="#1A1A1A" font-weight="700">testProgress_v2</text><text x="1184" y="480" text-anchor="start" font-family="Arial, Helvetica, sans-serif" font-size="11" fill="#6B6B6B">Estado de tests</text></svg>